<mxfile host="app.diagrams.net" modified="2022-05-20T14:34:45.512Z" agent="5.0 (Windows NT 10.0; Win64; x64) AppleWebKit/537.36 (KHTML, like Gecko) Chrome/101.0.4951.67 Safari/537.36" etag="ly413eVlRS373KYQRSTz" version="15.7.4" type="github">
  <diagram id="Ad8paw01SGSSWrn65opf" name="Page-1">
    <mxGraphModel dx="2782" dy="2339" grid="1" gridSize="10" guides="1" tooltips="1" connect="1" arrows="1" fold="1" page="1" pageScale="1" pageWidth="827" pageHeight="1169" math="0" shadow="0">
      <root>
        <mxCell id="0" />
        <mxCell id="1" parent="0" />
        <mxCell id="gkl5qvc1v3ptXiaylIRF-26" value="" style="rounded=0;whiteSpace=wrap;html=1;fillColor=#f9f7ed;strokeColor=#36393d;" parent="1" vertex="1">
          <mxGeometry x="-430" y="-360" width="1820" height="1500" as="geometry" />
        </mxCell>
        <mxCell id="gkl5qvc1v3ptXiaylIRF-13" value="" style="rounded=1;whiteSpace=wrap;html=1;fillColor=#dae8fc;strokeColor=#6c8ebf;" parent="1" vertex="1">
          <mxGeometry x="-70" y="-270" width="1370" height="1370" as="geometry" />
        </mxCell>
        <mxCell id="gkl5qvc1v3ptXiaylIRF-30" value="&lt;b&gt;Camada de&lt;br&gt;&amp;nbsp;Apresentação&lt;/b&gt;" style="rounded=0;whiteSpace=wrap;html=1;direction=south;labelPosition=center;verticalLabelPosition=bottom;align=center;verticalAlign=top;fillColor=#fff2cc;strokeColor=#d6b656;" parent="1" vertex="1">
          <mxGeometry x="90" y="200" width="140" height="250" as="geometry" />
        </mxCell>
        <mxCell id="gkl5qvc1v3ptXiaylIRF-35" value="&lt;span style=&quot;color: rgb(32 , 33 , 36) ; font-family: &amp;quot;arial&amp;quot; , sans-serif ; font-size: 12px&quot;&gt;&lt;b&gt;Camada de acesso a dados&lt;/b&gt;&lt;/span&gt;" style="rounded=0;whiteSpace=wrap;html=1;direction=south;labelPosition=right;verticalLabelPosition=bottom;align=left;verticalAlign=top;fontSize=12;fillColor=#fff2cc;strokeColor=#d6b656;textDirection=ltr;" parent="1" vertex="1">
          <mxGeometry x="580" y="200" width="160" height="250" as="geometry" />
        </mxCell>
        <mxCell id="gkl5qvc1v3ptXiaylIRF-1" value="Database" style="shape=cylinder3;whiteSpace=wrap;html=1;boundedLbl=1;backgroundOutline=1;size=15;fillColor=#fff2cc;strokeColor=#d6b656;fontStyle=1" parent="1" vertex="1">
          <mxGeometry x="850" y="270" width="60" height="80" as="geometry" />
        </mxCell>
        <mxCell id="gkl5qvc1v3ptXiaylIRF-16" style="edgeStyle=orthogonalEdgeStyle;rounded=0;orthogonalLoop=1;jettySize=auto;html=1;entryX=0.84;entryY=1.043;entryDx=0;entryDy=0;entryPerimeter=0;" parent="1" source="gkl5qvc1v3ptXiaylIRF-15" target="gkl5qvc1v3ptXiaylIRF-7" edge="1">
          <mxGeometry relative="1" as="geometry" />
        </mxCell>
        <mxCell id="gkl5qvc1v3ptXiaylIRF-15" value="&lt;b&gt;Camada de Serviço&lt;/b&gt;" style="rounded=0;whiteSpace=wrap;html=1;direction=south;labelPosition=center;verticalLabelPosition=bottom;align=left;verticalAlign=top;fillColor=#fff2cc;strokeColor=#d6b656;" parent="1" vertex="1">
          <mxGeometry x="360" y="200" width="160" height="250" as="geometry" />
        </mxCell>
        <mxCell id="gkl5qvc1v3ptXiaylIRF-3" value="Service&lt;br style=&quot;font-size: 13px;&quot;&gt;" style="rounded=1;whiteSpace=wrap;html=1;fontStyle=1;fontSize=13;" parent="1" vertex="1">
          <mxGeometry x="380" y="220" width="120" height="60" as="geometry" />
        </mxCell>
        <mxCell id="gkl5qvc1v3ptXiaylIRF-18" style="edgeStyle=orthogonalEdgeStyle;rounded=0;orthogonalLoop=1;jettySize=auto;html=1;entryX=0.2;entryY=1.014;entryDx=0;entryDy=0;entryPerimeter=0;exitX=0;exitY=0.5;exitDx=0;exitDy=0;" parent="1" target="gkl5qvc1v3ptXiaylIRF-7" edge="1" source="gkl5qvc1v3ptXiaylIRF-30">
          <mxGeometry relative="1" as="geometry">
            <mxPoint x="240" y="250" as="sourcePoint" />
          </mxGeometry>
        </mxCell>
        <mxCell id="gkl5qvc1v3ptXiaylIRF-5" value="Mappers" style="rounded=1;whiteSpace=wrap;html=1;fontStyle=1;fontSize=13;" parent="1" vertex="1">
          <mxGeometry x="380" y="350" width="120" height="60" as="geometry" />
        </mxCell>
        <mxCell id="gkl5qvc1v3ptXiaylIRF-7" value="DTO" style="rounded=1;whiteSpace=wrap;html=1;" parent="1" vertex="1">
          <mxGeometry x="190" y="40" width="250" height="70" as="geometry" />
        </mxCell>
        <mxCell id="gkl5qvc1v3ptXiaylIRF-11" value="" style="endArrow=classic;startArrow=classic;html=1;rounded=0;entryX=0;entryY=0.5;entryDx=0;entryDy=0;entryPerimeter=0;" parent="1" target="gkl5qvc1v3ptXiaylIRF-1" edge="1">
          <mxGeometry width="50" height="50" relative="1" as="geometry">
            <mxPoint x="740" y="310" as="sourcePoint" />
            <mxPoint x="685" y="279.5" as="targetPoint" />
            <Array as="points" />
          </mxGeometry>
        </mxCell>
        <mxCell id="gkl5qvc1v3ptXiaylIRF-24" value="Client" style="rounded=1;whiteSpace=wrap;html=1;fontStyle=1;fontSize=14;" parent="1" vertex="1">
          <mxGeometry x="-370" y="180" width="120" height="290" as="geometry" />
        </mxCell>
        <mxCell id="gkl5qvc1v3ptXiaylIRF-28" value="View" style="shape=folder;fontStyle=1;spacingTop=10;tabWidth=40;tabHeight=14;tabPosition=left;html=1;" parent="1" vertex="1">
          <mxGeometry x="105" y="330" width="110" height="70" as="geometry" />
        </mxCell>
        <mxCell id="gkl5qvc1v3ptXiaylIRF-29" value="Controller" style="shape=folder;fontStyle=1;spacingTop=10;tabWidth=40;tabHeight=14;tabPosition=left;html=1;" parent="1" vertex="1">
          <mxGeometry x="105" y="230" width="110" height="70" as="geometry" />
        </mxCell>
        <mxCell id="gkl5qvc1v3ptXiaylIRF-31" value="" style="shape=flexArrow;endArrow=classic;html=1;rounded=0;labelBackgroundColor=#000000;fontStyle=1;fillColor=#8F8F8F;exitX=0.963;exitY=0.3;exitDx=0;exitDy=0;exitPerimeter=0;" parent="1" target="gkl5qvc1v3ptXiaylIRF-29" edge="1" source="gkl5qvc1v3ptXiaylIRF-24">
          <mxGeometry width="50" height="50" relative="1" as="geometry">
            <mxPoint x="20" y="265" as="sourcePoint" />
            <mxPoint x="110" y="240" as="targetPoint" />
          </mxGeometry>
        </mxCell>
        <mxCell id="gkl5qvc1v3ptXiaylIRF-32" value="&lt;font style=&quot;font-size: 15px;&quot;&gt;Request&lt;/font&gt;" style="edgeLabel;html=1;align=center;verticalAlign=middle;resizable=0;points=[];" parent="gkl5qvc1v3ptXiaylIRF-31" vertex="1" connectable="0">
          <mxGeometry x="-0.5733" y="-2" relative="1" as="geometry">
            <mxPoint x="4" y="-27" as="offset" />
          </mxGeometry>
        </mxCell>
        <mxCell id="gkl5qvc1v3ptXiaylIRF-33" value="" style="shape=flexArrow;endArrow=classic;html=1;rounded=0;labelBackgroundColor=#000000;fontSize=15;fillColor=#8F8F8F;entryX=0.963;entryY=0.639;entryDx=0;entryDy=0;entryPerimeter=0;" parent="1" source="gkl5qvc1v3ptXiaylIRF-28" edge="1" target="gkl5qvc1v3ptXiaylIRF-24">
          <mxGeometry width="50" height="50" relative="1" as="geometry">
            <mxPoint x="40" y="320" as="sourcePoint" />
            <mxPoint x="20" y="365" as="targetPoint" />
          </mxGeometry>
        </mxCell>
        <mxCell id="gkl5qvc1v3ptXiaylIRF-34" value="Response" style="edgeLabel;html=1;align=center;verticalAlign=middle;resizable=0;points=[];fontSize=15;" parent="gkl5qvc1v3ptXiaylIRF-33" vertex="1" connectable="0">
          <mxGeometry x="0.4908" relative="1" as="geometry">
            <mxPoint x="26" y="-24" as="offset" />
          </mxGeometry>
        </mxCell>
        <mxCell id="a9qz_Aw07XGDB3KNEQlv-19" value="" style="edgeStyle=orthogonalEdgeStyle;rounded=0;orthogonalLoop=1;jettySize=auto;html=1;" edge="1" parent="1" source="gkl5qvc1v3ptXiaylIRF-36" target="a9qz_Aw07XGDB3KNEQlv-18">
          <mxGeometry relative="1" as="geometry" />
        </mxCell>
        <mxCell id="gkl5qvc1v3ptXiaylIRF-36" value="&lt;font style=&quot;font-size: 14px;&quot;&gt;Repository&lt;/font&gt;" style="shape=folder;fontStyle=1;spacingTop=10;tabWidth=40;tabHeight=14;tabPosition=left;html=1;fontSize=14;fillColor=#f5f5f5;fontColor=#333333;strokeColor=#666666;" parent="1" vertex="1">
          <mxGeometry x="605" y="220" width="110" height="70" as="geometry" />
        </mxCell>
        <mxCell id="gkl5qvc1v3ptXiaylIRF-39" value="" style="shape=flexArrow;endArrow=classic;startArrow=classic;html=1;rounded=0;labelBackgroundColor=#000000;fontSize=12;fillColor=#8F8F8F;entryX=0.996;entryY=0.175;entryDx=0;entryDy=0;entryPerimeter=0;exitX=0.534;exitY=0.017;exitDx=0;exitDy=0;exitPerimeter=0;" parent="1" target="gkl5qvc1v3ptXiaylIRF-15" edge="1">
          <mxGeometry width="100" height="100" relative="1" as="geometry">
            <mxPoint x="492.0500000000002" y="526.02" as="sourcePoint" />
            <mxPoint x="500" y="440" as="targetPoint" />
          </mxGeometry>
        </mxCell>
        <mxCell id="gkl5qvc1v3ptXiaylIRF-40" value="" style="shape=flexArrow;endArrow=classic;startArrow=classic;html=1;rounded=0;labelBackgroundColor=#000000;fontSize=12;fillColor=#8F8F8F;entryX=1;entryY=0.5;entryDx=0;entryDy=0;exitX=0.82;exitY=0.173;exitDx=0;exitDy=0;exitPerimeter=0;" parent="1" edge="1" target="gkl5qvc1v3ptXiaylIRF-35" source="a9qz_Aw07XGDB3KNEQlv-16">
          <mxGeometry width="100" height="100" relative="1" as="geometry">
            <mxPoint x="760" y="555" as="sourcePoint" />
            <mxPoint x="659.5" y="450" as="targetPoint" />
            <Array as="points" />
          </mxGeometry>
        </mxCell>
        <mxCell id="gkl5qvc1v3ptXiaylIRF-42" value="" style="shape=flexArrow;endArrow=classic;startArrow=classic;html=1;rounded=0;labelBackgroundColor=#000000;fontSize=12;fillColor=#8F8F8F;entryX=1;entryY=0.5;entryDx=0;entryDy=0;exitX=0.445;exitY=-0.017;exitDx=0;exitDy=0;exitPerimeter=0;" parent="1" edge="1">
          <mxGeometry width="100" height="100" relative="1" as="geometry">
            <mxPoint x="299.875" y="523.98" as="sourcePoint" />
            <mxPoint x="299" y="450" as="targetPoint" />
          </mxGeometry>
        </mxCell>
        <mxCell id="gkl5qvc1v3ptXiaylIRF-45" value="" style="endArrow=classic;startArrow=classic;html=1;rounded=0;entryX=0.5;entryY=1;entryDx=0;entryDy=0;" parent="1" target="gkl5qvc1v3ptXiaylIRF-35" edge="1">
          <mxGeometry width="50" height="50" relative="1" as="geometry">
            <mxPoint x="520" y="325" as="sourcePoint" />
            <mxPoint x="630" y="324.5" as="targetPoint" />
            <Array as="points" />
          </mxGeometry>
        </mxCell>
        <mxCell id="gkl5qvc1v3ptXiaylIRF-46" value="" style="endArrow=classic;startArrow=classic;html=1;rounded=0;entryX=0.5;entryY=1;entryDx=0;entryDy=0;exitX=0.5;exitY=0;exitDx=0;exitDy=0;" parent="1" edge="1" source="gkl5qvc1v3ptXiaylIRF-30">
          <mxGeometry width="50" height="50" relative="1" as="geometry">
            <mxPoint x="310" y="325" as="sourcePoint" />
            <mxPoint x="360" y="324.5" as="targetPoint" />
            <Array as="points" />
          </mxGeometry>
        </mxCell>
        <mxCell id="a9qz_Aw07XGDB3KNEQlv-4" value="" style="rounded=0;whiteSpace=wrap;html=1;align=center;" vertex="1" parent="1">
          <mxGeometry x="185" y="650" width="575" height="390" as="geometry" />
        </mxCell>
        <mxCell id="a9qz_Aw07XGDB3KNEQlv-5" value="&lt;p style=&quot;margin: 0px ; margin-top: 4px ; text-align: center&quot;&gt;&lt;br&gt;&lt;b&gt;Estado.java&lt;/b&gt;&lt;/p&gt;&lt;p style=&quot;margin: 0px ; margin-top: 4px ; text-align: center&quot;&gt;&lt;b&gt;&lt;br&gt;&lt;/b&gt;&lt;/p&gt;&lt;p style=&quot;margin: 0px ; margin-top: 4px ; text-align: center&quot;&gt;&lt;b&gt;&lt;br&gt;&lt;/b&gt;&lt;/p&gt;" style="verticalAlign=top;align=left;overflow=fill;fontSize=12;fontFamily=Helvetica;html=1;" vertex="1" parent="1">
          <mxGeometry x="230" y="670" width="140" height="60" as="geometry" />
        </mxCell>
        <mxCell id="a9qz_Aw07XGDB3KNEQlv-6" value="&lt;p style=&quot;margin: 0px ; margin-top: 4px ; text-align: center&quot;&gt;&lt;br&gt;&lt;b&gt;Modelo.java&lt;/b&gt;&lt;/p&gt;" style="verticalAlign=top;align=left;overflow=fill;fontSize=12;fontFamily=Helvetica;html=1;" vertex="1" parent="1">
          <mxGeometry x="414" y="960" width="140" height="60" as="geometry" />
        </mxCell>
        <mxCell id="a9qz_Aw07XGDB3KNEQlv-7" value="&lt;p style=&quot;margin: 0px ; margin-top: 4px ; text-align: center&quot;&gt;&lt;br&gt;&lt;b&gt;NotificacaoFurto.java&lt;/b&gt;&lt;/p&gt;&lt;p style=&quot;margin: 0px ; margin-top: 4px ; text-align: center&quot;&gt;&lt;b&gt;&lt;br&gt;&lt;/b&gt;&lt;/p&gt;" style="verticalAlign=top;align=left;overflow=fill;fontSize=12;fontFamily=Helvetica;html=1;" vertex="1" parent="1">
          <mxGeometry x="230" y="750" width="140" height="60" as="geometry" />
        </mxCell>
        <mxCell id="a9qz_Aw07XGDB3KNEQlv-8" value="&lt;p style=&quot;margin: 0px ; margin-top: 4px ; text-align: center&quot;&gt;&lt;br&gt;&lt;b&gt;Cliente.java&lt;/b&gt;&lt;/p&gt;" style="verticalAlign=top;align=left;overflow=fill;fontSize=12;fontFamily=Helvetica;html=1;" vertex="1" parent="1">
          <mxGeometry x="230" y="850" width="140" height="60" as="geometry" />
        </mxCell>
        <mxCell id="a9qz_Aw07XGDB3KNEQlv-9" value="&lt;p style=&quot;margin: 0px ; margin-top: 4px ; text-align: center&quot;&gt;&lt;br&gt;&lt;b&gt;Veiculo.java&lt;/b&gt;&lt;/p&gt;" style="verticalAlign=top;align=left;overflow=fill;fontSize=12;fontFamily=Helvetica;html=1;" vertex="1" parent="1">
          <mxGeometry x="420" y="850" width="140" height="60" as="geometry" />
        </mxCell>
        <mxCell id="a9qz_Aw07XGDB3KNEQlv-10" value="&lt;p style=&quot;margin: 0px ; margin-top: 4px ; text-align: center&quot;&gt;&lt;br&gt;&lt;b&gt;PecasFurtadas.java&lt;/b&gt;&lt;/p&gt;" style="verticalAlign=top;align=left;overflow=fill;fontSize=12;fontFamily=Helvetica;html=1;" vertex="1" parent="1">
          <mxGeometry x="414" y="750" width="140" height="60" as="geometry" />
        </mxCell>
        <mxCell id="a9qz_Aw07XGDB3KNEQlv-11" value="&lt;p style=&quot;margin: 0px ; margin-top: 4px ; text-align: center&quot;&gt;&lt;br&gt;&lt;b&gt;Cidade.java&lt;/b&gt;&lt;/p&gt;&lt;p style=&quot;margin: 0px ; margin-top: 4px ; text-align: center&quot;&gt;&lt;b&gt;&lt;br&gt;&lt;/b&gt;&lt;/p&gt;" style="verticalAlign=top;align=left;overflow=fill;fontSize=12;fontFamily=Helvetica;html=1;" vertex="1" parent="1">
          <mxGeometry x="414" y="670" width="140" height="60" as="geometry" />
        </mxCell>
        <mxCell id="a9qz_Aw07XGDB3KNEQlv-12" value="&lt;p style=&quot;margin: 0px ; margin-top: 4px ; text-align: center&quot;&gt;&lt;br&gt;&lt;b&gt;PecasVeiculo.java&lt;/b&gt;&lt;/p&gt;" style="verticalAlign=top;align=left;overflow=fill;fontSize=12;fontFamily=Helvetica;html=1;" vertex="1" parent="1">
          <mxGeometry x="600" y="850" width="140" height="60" as="geometry" />
        </mxCell>
        <mxCell id="a9qz_Aw07XGDB3KNEQlv-13" value="&lt;p style=&quot;margin: 0px ; margin-top: 4px ; text-align: center&quot;&gt;&lt;br&gt;&lt;b&gt;Peca.java&lt;/b&gt;&lt;/p&gt;" style="verticalAlign=top;align=left;overflow=fill;fontSize=12;fontFamily=Helvetica;html=1;" vertex="1" parent="1">
          <mxGeometry x="600" y="750" width="140" height="60" as="geometry" />
        </mxCell>
        <mxCell id="a9qz_Aw07XGDB3KNEQlv-14" value="&lt;p style=&quot;margin: 0px ; margin-top: 4px ; text-align: center&quot;&gt;&lt;br&gt;&lt;b&gt;Bairro.java&lt;/b&gt;&lt;/p&gt;&lt;p style=&quot;margin: 0px ; margin-top: 4px ; text-align: center&quot;&gt;&lt;b&gt;&lt;br&gt;&lt;/b&gt;&lt;/p&gt;" style="verticalAlign=top;align=left;overflow=fill;fontSize=12;fontFamily=Helvetica;html=1;" vertex="1" parent="1">
          <mxGeometry x="600" y="670" width="140" height="60" as="geometry" />
        </mxCell>
        <mxCell id="a9qz_Aw07XGDB3KNEQlv-17" value="" style="edgeStyle=orthogonalEdgeStyle;rounded=0;orthogonalLoop=1;jettySize=auto;html=1;" edge="1" parent="1" source="a9qz_Aw07XGDB3KNEQlv-16">
          <mxGeometry relative="1" as="geometry">
            <mxPoint x="484" y="650" as="targetPoint" />
          </mxGeometry>
        </mxCell>
        <mxCell id="a9qz_Aw07XGDB3KNEQlv-16" value="Model" style="shape=folder;fontStyle=1;spacingTop=10;tabWidth=40;tabHeight=14;tabPosition=left;html=1;align=center;" vertex="1" parent="1">
          <mxGeometry x="210" y="510" width="550" height="75" as="geometry" />
        </mxCell>
        <mxCell id="a9qz_Aw07XGDB3KNEQlv-18" value="" style="rounded=0;whiteSpace=wrap;html=1;align=center;" vertex="1" parent="1">
          <mxGeometry x="530" y="-230" width="650" height="390" as="geometry" />
        </mxCell>
        <mxCell id="a9qz_Aw07XGDB3KNEQlv-20" value="&lt;p style=&quot;margin: 0px ; margin-top: 4px ; text-align: center&quot;&gt;&lt;br&gt;&lt;b&gt;EstadoRepository.java&lt;/b&gt;&lt;/p&gt;&lt;p style=&quot;margin: 0px ; margin-top: 4px ; text-align: center&quot;&gt;&lt;b&gt;&lt;br&gt;&lt;/b&gt;&lt;/p&gt;&lt;p style=&quot;margin: 0px ; margin-top: 4px ; text-align: center&quot;&gt;&lt;b&gt;&lt;br&gt;&lt;/b&gt;&lt;/p&gt;" style="verticalAlign=top;align=left;overflow=fill;fontSize=12;fontFamily=Helvetica;html=1;" vertex="1" parent="1">
          <mxGeometry x="615" y="80" width="140" height="60" as="geometry" />
        </mxCell>
        <mxCell id="a9qz_Aw07XGDB3KNEQlv-21" value="&lt;p style=&quot;margin: 4px 0px 0px&quot;&gt;&lt;br&gt;&lt;/p&gt;&lt;p style=&quot;margin: 4px 0px 0px&quot;&gt;ModeloRepository.java&lt;/p&gt;" style="verticalAlign=top;align=center;overflow=fill;fontSize=12;fontFamily=Helvetica;html=1;fontStyle=1" vertex="1" parent="1">
          <mxGeometry x="797.5" y="-190" width="140" height="60" as="geometry" />
        </mxCell>
        <mxCell id="a9qz_Aw07XGDB3KNEQlv-22" value="&lt;p style=&quot;margin: 4px 0px 0px&quot;&gt;&lt;b&gt;&lt;br&gt;&lt;/b&gt;&lt;/p&gt;&lt;p style=&quot;margin: 4px 0px 0px&quot;&gt;&lt;b&gt;PecasVeiculoRepository.java&lt;/b&gt;&lt;/p&gt;" style="verticalAlign=top;align=center;overflow=fill;fontSize=12;fontFamily=Helvetica;html=1;" vertex="1" parent="1">
          <mxGeometry x="980" y="-100" width="190" height="60" as="geometry" />
        </mxCell>
        <mxCell id="a9qz_Aw07XGDB3KNEQlv-23" value="&lt;p style=&quot;margin: 4px 0px 0px&quot;&gt;&lt;b&gt;&lt;br&gt;&lt;/b&gt;&lt;/p&gt;&lt;p style=&quot;margin: 4px 0px 0px&quot;&gt;&lt;b&gt;VeiculoRepository.java&lt;/b&gt;&lt;/p&gt;" style="verticalAlign=top;align=center;overflow=fill;fontSize=12;fontFamily=Helvetica;html=1;" vertex="1" parent="1">
          <mxGeometry x="797.5" y="-100" width="140" height="60" as="geometry" />
        </mxCell>
        <mxCell id="a9qz_Aw07XGDB3KNEQlv-24" value="&lt;p style=&quot;margin: 4px 0px 0px&quot;&gt;&lt;br&gt;&lt;/p&gt;&lt;p style=&quot;margin: 4px 0px 0px&quot;&gt;ClienteRepository.java&lt;/p&gt;" style="verticalAlign=top;align=center;overflow=fill;fontSize=12;fontFamily=Helvetica;html=1;fontStyle=1" vertex="1" parent="1">
          <mxGeometry x="615" y="-100" width="140" height="60" as="geometry" />
        </mxCell>
        <mxCell id="a9qz_Aw07XGDB3KNEQlv-25" value="&lt;p style=&quot;margin: 4px 0px 0px&quot;&gt;&lt;b&gt;&lt;br&gt;&lt;/b&gt;&lt;/p&gt;&lt;p style=&quot;margin: 4px 0px 0px&quot;&gt;&lt;b&gt;NotificacaoFurtoRepository.java&lt;/b&gt;&lt;/p&gt;&lt;p style=&quot;margin: 4px 0px 0px&quot;&gt;&lt;br&gt;&lt;/p&gt;" style="verticalAlign=top;align=center;overflow=fill;fontSize=12;fontFamily=Helvetica;html=1;" vertex="1" parent="1">
          <mxGeometry x="540" y="-10" width="215" height="60" as="geometry" />
        </mxCell>
        <mxCell id="a9qz_Aw07XGDB3KNEQlv-26" value="&lt;p style=&quot;margin: 0px ; margin-top: 4px ; text-align: center&quot;&gt;&lt;b&gt;&lt;br&gt;&lt;/b&gt;&lt;/p&gt;&lt;p style=&quot;margin: 0px ; margin-top: 4px ; text-align: center&quot;&gt;&lt;b&gt;PecasFurtadas.java&lt;/b&gt;&lt;/p&gt;" style="verticalAlign=top;align=left;overflow=fill;fontSize=12;fontFamily=Helvetica;html=1;" vertex="1" parent="1">
          <mxGeometry x="797.5" y="-10" width="140" height="60" as="geometry" />
        </mxCell>
        <mxCell id="a9qz_Aw07XGDB3KNEQlv-27" value="&lt;p style=&quot;margin: 4px 0px 0px&quot;&gt;&lt;br&gt;&lt;/p&gt;&lt;p style=&quot;margin: 4px 0px 0px&quot;&gt;CidadeRepository.java&lt;/p&gt;&lt;p style=&quot;margin: 4px 0px 0px&quot;&gt;&lt;br&gt;&lt;/p&gt;" style="verticalAlign=top;align=center;overflow=fill;fontSize=12;fontFamily=Helvetica;html=1;fontStyle=1" vertex="1" parent="1">
          <mxGeometry x="797.5" y="80" width="140" height="60" as="geometry" />
        </mxCell>
        <mxCell id="a9qz_Aw07XGDB3KNEQlv-28" value="&lt;p style=&quot;margin: 0px ; margin-top: 4px ; text-align: center&quot;&gt;&lt;br&gt;&lt;/p&gt;&lt;p style=&quot;text-align: center ; margin: 4px 0px 0px&quot;&gt;PecaRepository.java&lt;/p&gt;" style="verticalAlign=top;align=left;overflow=fill;fontSize=12;fontFamily=Helvetica;html=1;fontStyle=1" vertex="1" parent="1">
          <mxGeometry x="980" y="-10" width="140" height="60" as="geometry" />
        </mxCell>
        <mxCell id="a9qz_Aw07XGDB3KNEQlv-29" value="&lt;p style=&quot;margin: 4px 0px 0px&quot;&gt;&lt;b&gt;&lt;br&gt;&lt;/b&gt;&lt;/p&gt;&lt;p style=&quot;margin: 4px 0px 0px&quot;&gt;&lt;b&gt;BairroRepository.java&lt;/b&gt;&lt;/p&gt;" style="verticalAlign=top;align=center;overflow=fill;fontSize=12;fontFamily=Helvetica;html=1;" vertex="1" parent="1">
          <mxGeometry x="980" y="80" width="140" height="60" as="geometry" />
        </mxCell>
      </root>
    </mxGraphModel>
  </diagram>
</mxfile>
